<svg xmlns="http://www.w3.org/2000/svg" version="1.1" xmlns:xlink="http://www.w3.org/1999/xlink" xmlns:svgjs="http://svgjs.dev/svgjs" viewBox="0 0 800 800"><defs><linearGradient x1="50%" y1="0%" x2="50%" y2="100%" id="ssscribble-grad"><stop stop-color="hsl(206, 75%, 49%)" stop-opacity="1" offset="0%"></stop><stop stop-color="hsl(331, 90%, 56%)" stop-opacity="1" offset="100%"></stop></linearGradient></defs><g fill="none" stroke-width="1.5" stroke="url(#ssscribble-grad)" stroke-linecap="round"><path d="M1100.03 193.9C1078.37 226.76 978.24 265.35 840.91 310.98 712.35 359.35 632.98 419.34 619.2 492.95 669.57 571.49 757.14 662.6 849.49 759.76 929.1 846.87 968.37 920.22 963.49 963.48 920.24 968.38 846.9 929.11 759.79 849.5 662.64 757.16 571.53 669.58 492.99 619.19 419.38 632.96 359.39 712.32 311.01 840.87 265.38 978.2 226.79 1078.35 193.93 1100.02 161.06 1035.17 135.5 908.86 119.15 770.51 105.55 665.18 105.77 623.77 122.43 649.1 144.03 729.83 181.01 830 227.52 916.66 263.99 974.97 290.15 984.65 290.33 949.71 252.14 878.74 173.91 786.25 60.08 689.21 -66.47 589.68 -183.51 502.83 -257.98 431.85 -268.28 369.07 -207.61 319.38 -91.73 278.74 32.9 241.33 126.37 207.2 148.03 174.34 83.16 141.48 -36.49 111.44 -162.16 86.88 -254.79 65.54 -277.49 55.45 -228.06 61.28 -123.23 75.3 6.41 108.04 127.28 156.92 244.11 225.98 225.98 244.11 156.92 127.28 108.04 6.41 75.3 -123.23 61.28 -228.06 55.45 -277.49 65.54 -254.79 86.88 -162.16 111.44 -36.49 141.48 83.16 174.34 148.03 207.2 126.37 241.33 32.9 278.74 -91.73 319.37 -207.62 369.06 -268.29 431.84 -257.98 502.81 -183.52 589.66 -66.48 689.19 60.08 786.23 173.9 878.73 252.14 949.71 290.32 984.66 290.14 974.98 263.97 916.69 227.51 830.03 181 729.86 144.01 649.11 122.41 623.77 105.74 665.17 105.53 770.49 119.13 908.84 135.47 1035.15 161.04 1100.03 193.9Q1100.03 193.9 1100.03 193.9" opacity="0.77"></path><path d="M1066.03 294.29C1048.81 324.8 961.96 366.72 837.47 419.46 711.64 473.09 619.6 538.46 580.26 613.49 598.36 686.6 659.13 763.11 738.92 834.02 824.26 887.63 887.53 919.25 918.43 918.43 919.25 887.54 887.64 824.28 834.05 738.94 763.14 659.14 686.64 598.37 613.53 580.25 538.51 619.57 473.14 711.61 419.51 837.43 366.77 961.92 324.85 1048.78 294.34 1066.02 263.82 1008.31 246.16 894.92 241.35 765.07 237.44 655.5 247.3 595.09 269.44 592.4 289.67 644.06 315.92 726.11 339.8 811.97 346.37 888.69 334.17 932.2 293.35 938.12 222.46 911.1 123.01 855.21 5.9 783.41 -105.65 698.99 -193.79 615.58 -234.25 540.44 -217.29 466.75 -142.61 404.71 -28.56 354.42 84.15 305.86 164.81 266.45 182.03 235.93 124.3 205.42 17.08 185.24 -100.98 176.26 -198.77 169 -241.79 175.53 -222.1 196.33 -148.06 218.59 -38.65 251.75 78.97 289.15 187.46 313.93 267.14 326.01 313.05 313.05 326.01 267.14 313.93 187.46 289.15 78.97 251.75 -38.65 218.59 -148.06 196.33 -222.1 175.53 -241.79 169 -198.77 176.26 -100.98 185.24 17.08 205.42 124.3 235.93 182.03 266.45 164.81 305.85 84.15 354.41 -28.56 404.7 -142.61 466.73 -217.29 540.42 -234.26 615.56 -193.79 698.97 -105.66 783.4 5.9 855.2 123.01 911.1 222.46 938.13 293.35 932.21 334.16 888.71 346.36 811.99 339.79 726.13 315.91 644.08 289.65 592.41 269.42 595.09 247.27 655.48 237.41 765.05 241.32 894.9 246.12 1008.3 263.78 1066.03 294.29Q1066.03 294.29 1066.03 294.29" opacity="0.61"></path><path d="M1032.03 438.28C1018.82 466.45 944.7 506.16 833.93 555.54 714.43 604.11 615.4 660.23 555.95 719.43 544.08 772.31 574.5 820.15 632.02 854.68 707.79 871.3 778.12 864.51 830.15 830.16 864.51 778.14 871.3 707.81 854.69 632.03 820.17 574.5 772.34 544.08 719.46 555.94 660.27 615.37 604.15 714.39 555.58 833.89 506.21 944.66 466.5 1018.79 438.33 1032.02 410.16 981.11 394.88 880.53 391.13 760.8 389.02 613.87 406.62 599.82 398.45 701.28 371.66 780.59 324.42 842.94 253.15 879.17 164.21 891.63 60.48 875.62 -44.61 838.52 -131.46 784.81 -187.13 722.62 -195.91 660.15 -157.11 593.69 -74.11 533.72 34.51 483.49 134.41 433.24 202.82 393.37 216.03 365.2 165.1 337.03 70.22 321.89 -38.63 319.02 -166.66 320.5 -118.74 364.07 24.67 382.28 133.3 375.97 229.05 351.56 302.19 302.19 351.56 229.05 375.97 133.3 382.28 24.67 364.07 -118.74 320.5 -166.66 319.02 -38.63 321.89 70.22 337.03 165.1 365.2 216.03 393.37 202.82 433.23 134.41 483.47 34.51 533.71 -74.12 593.67 -157.12 660.13 -195.92 722.61 -187.14 784.8 -131.46 838.52 -44.6 875.62 60.49 891.64 164.22 879.19 253.16 842.97 324.43 780.62 371.66 701.31 398.45 599.85 406.6 613.86 388.98 760.78 391.08 880.51 394.83 981.1 410.11 1032.03 438.28Q1032.03 438.28 1032.03 438.28" opacity="0.25"></path><path d="M998.03 566.47C988.4 592.29 926.33 625.05 829.81 662.54 719.64 698.32 619.1 735.3 545.81 768.81 508.76 794.94 509.2 810.61 539.14 810.35 593.81 796.71 655.58 763.65 712.11 712.13 763.64 655.6 796.7 593.83 810.34 539.15 810.6 509.2 794.94 508.75 768.82 545.79 735.32 619.07 698.34 719.6 662.57 829.77 625.09 926.3 592.33 988.38 566.51 998.02 540.69 953.56 523.03 865.54 511.82 757.22 498.9 650.86 488.91 568.07 477.66 521.27 459.04 515.19 432.18 544.06 392.12 595.48 338.69 663.48 268.56 728.61 183.19 780.19 92.82 819.62 0.45 836.63 -81.1 833.28 -137.93 815.04 -161.53 783.15 -143.4 744.16 -89.03 698.62 -3.19 653.09 97.01 612.04 183.57 569.72 240.4 534.63 250.03 508.81 205.55 482.99 122.75 467.66 24.39 461.28 -106.03 452.92 -129.07 441.93 -24.74 415.07 70.14 378.63 165.88 324.56 251.3 251.29 324.56 165.88 378.64 70.13 415.08 -24.75 441.93 -129.07 452.9 -106.04 461.25 24.38 467.63 122.75 482.96 205.54 508.78 250.02 534.6 240.39 569.69 183.56 612 97 653.06 -3.2 698.59 -89.04 744.15 -143.41 783.14 -161.54 815.04 -137.93 833.29 -81.1 836.65 0.45 819.64 92.83 780.22 183.21 728.64 268.57 663.51 338.7 595.51 392.13 544.08 432.19 515.2 459.04 521.28 477.65 568.06 488.89 650.85 498.87 757.2 511.79 865.52 523 953.55 540.65 998.03 566.47Q998.03 566.47 998.03 566.47" opacity="0.78"></path><path d="M964.03 626C957.54 649.47 906.71 673.12 824.57 695.34 726.1 715.84 629.02 731.67 548.47 739.58 492.8 741.84 467.15 732.08 468.88 708.29 496.12 678.01 537.81 635.26 584.09 584.09 635.26 537.81 678.01 496.12 708.29 468.88 732.08 467.15 741.84 492.8 739.58 548.47 731.67 629.02 715.84 726.1 695.34 824.57 673.12 906.71 649.47 957.54 626 964.03 602.53 925.66 580.35 849.82 558.3 753.8 534.53 654.08 507.66 568 474.9 507.4 436.48 477.89 388.06 479.25 328.1 504.82 261.64 551.61 185.19 605.56 103.26 656.9 26.22 706.8 -43.29 743.03 -94.98 763.75 -121.15 774.93 -116.55 771.91 -78.09 758.27 -14.73 738.46 68.97 713.26 158.38 686.41 231.47 657.92 277.54 631.02 284.03 607.55 245.66 584.08 174.58 565.14 87.62 549.37 -3.03 531.95 -75.75 514.46 -119.15 493.59 -131.46 466.55 -109.05 430.91 -59.03 383.56 12.19 326.66 93.97 256.73 176.07 176.07 256.73 93.97 326.66 12.19 383.56 -59.03 430.91 -109.05 466.55 -131.46 493.59 -119.15 514.46 -75.75 531.95 -3.03 549.37 87.62 565.14 174.58 584.08 245.66 607.55 284.03 631.02 277.53 657.92 231.47 686.41 158.38 713.25 68.97 738.46 -14.74 758.27 -78.09 771.92 -116.55 774.94 -121.15 763.77 -94.98 743.05 -43.3 706.82 26.21 656.92 103.25 605.59 185.19 551.63 261.63 504.84 328.1 479.25 388.06 477.89 436.47 507.39 474.89 567.99 507.65 654.06 534.52 753.77 558.29 849.79 580.34 925.63 602.52 964.03 625.99Q964.03 626 964.03 626" opacity="0.29"></path><path d="M929.96 592.18C926.36 613.31 886.05 628.8 818.16 638.09 733.11 646.29 643.71 646.4 562.14 637.27 495.27 625.53 449.85 603.57 426.76 572.22 425.73 540.82 441.52 504.32 467.52 467.76 504.01 441.67 540.47 425.76 571.86 426.65 603.22 449.6 625.2 494.88 636.97 561.64 646.14 643.15 646.07 732.54 637.9 817.65 628.64 885.66 613.16 926.13 592.04 929.92 570.91 897.25 545.14 833.08 514.56 749.91 482.9 659.45 444.54 574.94 398.76 506.67 350.37 459.89 293.6 437.62 229.69 437.46 165.74 458.31 98.95 491.67 34.77 530.03 -18.91 574.47 -59.74 613.84 -80.71 644.3 -79.61 671.48 -53.14 687.42 -1.75 692.71 64.32 694.16 141.7 687.35 218.6 674.29 278.33 659.92 314.36 641.67 317.96 620.55 285.1 599.42 225.08 576.42 149.98 550.95 67.66 524.18 -4.75 492.56 -57.42 454.5 -88.57 412.61 -91.74 361.88 -69.76 302.14 -26.78 239.13 31.71 169.43 97.83 97.3 169.99 31.25 239.69 -27.15 302.68 -70 362.38 -91.84 413.05 -88.53 454.9 -57.24 492.91 -4.47 524.48 68 551.22 150.31 576.65 225.34 599.63 285.23 620.76 317.92 641.88 314.14 660.15 277.96 674.55 218.11 687.65 141.15 694.51 63.78 693.12 -2.24 687.88 -53.53 672 -79.86 644.85 -80.83 614.42 -59.72 575.05 -18.76 530.58 35.01 492.15 99.26 458.7 166.08 437.72 230.04 437.73 293.95 459.84 350.7 506.48 399.05 574.63 444.79 659.08 483.11 749.55 514.75 832.8 545.3 897.1 571.06 929.96 592.18Q929.96 592.18 929.96 592.18" opacity="0.45"></path><path d="M896.02 479.22C894.49 498 863.37 508.5 808.89 511.03 738.06 513.29 659.61 507.24 582.75 493.5 512.49 479.97 455.56 460.02 414.62 435.99 385.19 406.46 406.47 385.2 436.01 414.63 460.05 455.59 480 512.52 493.53 582.79 507.28 659.65 513.32 738.1 511.06 808.93 508.53 863.4 498.03 894.5 479.25 896.03 460.47 868.65 434.31 815.51 401.42 745.32 368.27 666.08 328.07 587.34 281.78 517.41 235.7 460.42 184.83 420.82 131.85 398.89 82.97 394.39 36.81 403.53 -1.82 421.51 -28.79 449.02 -41.63 477.92 -36.47 504.07 -15.07 531.91 25 553.1 81.5 566.24 144.6 578.32 212.36 582.2 275.95 578.07 323.17 573.33 350.49 561.55 352.02 542.77 324.66 524 275.33 499.11 212.39 468.43 140.4 437.15 72.35 399.11 16.18 354.49 -27.05 308.81 -49.82 256.69 -52.2 199.91 -37.15 144.82 -5.76 88.96 36.82 36.85 88.93 -5.74 144.78 -37.14 199.87 -52.2 256.65 -49.82 308.77 -27.06 354.44 16.16 399.06 72.33 437.11 140.38 468.39 212.37 499.07 275.31 523.95 324.65 542.73 352.03 561.51 350.5 573.3 323.2 578.04 275.98 582.17 212.39 578.29 144.63 566.21 81.53 553.08 25.02 531.89 -15.06 504.05 -36.46 477.9 -41.63 449.01 -28.79 421.5 -1.83 403.52 36.8 394.38 82.95 398.88 131.83 420.81 184.8 460.41 235.67 517.41 281.74 587.34 328.03 666.07 368.23 745.31 401.38 815.5 434.26 868.64 460.43 896.02 479.21Q896.02 479.22 896.02 479.22" opacity="0.30"></path><path d="M862.02 333.48C840.36 366.34 739.89 370.47 608.18 353.99 479.72 344.91 388.59 333.28 341.79 341.79 333.28 388.59 344.91 479.72 353.99 608.18 370.47 739.89 366.34 840.36 333.48 862.02 300.62 797.15 242.14 670.85 168.71 536.65 102.68 426.62 39.77 365.62 5.2 348.71 8.93 368.92 65.21 399.58 169.59 418.36 277.21 441.11 364.36 438.84 386.02 405.98 321.15 373.12 208.16 312.78 98.06 233.08 12.11 157.35 -14.02 75.41 12.13 12.13 75.41 -14.02 157.35 12.11 233.08 98.06 312.78 208.16 373.12 321.15 405.98 386.02 438.84 364.36 441.11 277.21 418.36 169.59 399.58 65.21 368.92 8.93 348.71 5.2 365.62 39.77 426.62 102.68 536.65 168.71 670.85 242.14 797.15 300.62 862.02 333.48Q862.02 333.48 862.02 333.48" opacity="0.84"></path><path d="M828.03 215.22C814.81 243.38 740.11 256.88 634.28 263.32 518.43 278.25 418.81 302.22 348.3 348.3 302.22 418.81 278.25 518.43 263.32 634.28 256.88 740.11 243.38 814.81 215.22 828.03 187.05 777.12 146.88 676.42 104.51 561.25 70.63 451.85 50.64 370.47 59.8 322.04 93.4 301.3 163.14 298.08 258.34 296.63 343.52 302.36 406.81 294.86 420.03 266.69 369.12 238.53 279.84 192.37 185.31 137.82 70.81 70.09 70.08 70.8 137.81 185.3 192.36 279.82 238.52 369.1 266.68 420.03 294.86 406.81 302.37 343.54 296.64 258.36 298.08 163.15 301.3 93.4 322.03 59.8 370.46 50.64 451.84 70.62 561.23 104.51 676.4 146.88 777.1 187.04 828.03 215.21Q828.03 215.22 828.03 215.22" opacity="0.62"></path><path d="M794.03 173.13C787.54 196.6 735.95 220.61 657.41 248.7 563.66 282.74 472.12 330.59 395.96 395.96 330.59 472.12 282.74 563.66 248.7 657.41 220.61 735.95 196.6 787.54 173.13 794.03 149.65 755.66 128.95 679.54 116.36 587.54 109.72 490.87 120.94 406.14 155.54 342.02 200.94 293.38 267.58 261.51 344.13 239.28 405.46 223.25 447.54 205.9 454.03 182.43 415.66 158.96 349.06 131.59 274.26 106.94 194.8 88.49 134.96 83.73 101.61 101.6 83.73 134.96 88.49 194.78 106.94 274.24 131.58 349.04 158.95 415.64 182.42 454.03 205.89 447.54 223.25 405.47 239.28 344.14 261.5 267.59 293.37 200.94 342.01 155.54 406.12 120.94 490.85 109.72 587.52 116.36 679.52 128.94 755.64 149.65 794.03 173.12Q794.03 173.13 794.03 173.13" opacity="0.53"></path><path d="M760 224.57C758.54 243.34 726.6 272.24 674.2 310.61 607.35 351.46 535.81 405.22 469.91 469.64 405.47 535.54 351.7 607.1 310.83 673.99 272.44 726.44 243.53 758.45 224.76 759.98 205.98 732.62 199.1 679.06 204.95 611.77 213.28 536.09 237.75 462.5 277.57 399.36 318.86 341.61 370.49 295.88 423.58 261.78 462.21 231.01 486.54 206.64 488 187.86 460.57 169.08 414.56 157.68 361.01 155.9 299.08 157.47 245.41 173.89 206.89 207.03 173.78 245.56 157.38 299.23 155.83 361.15 157.63 414.67 169.05 460.62 187.83 487.98 206.61 486.45 230.97 462.05 261.71 423.36 295.8 370.24 341.5 318.6 399.23 277.31 462.36 237.49 535.94 213.05 611.64 204.73 678.95 198.91 732.57 205.79 760 224.57Q760 224.57 760 224.57" opacity="0.96"></path><path d="M726.03 348.45C712.81 376.62 636.89 451.5 548.99 548.99 451.5 636.89 376.62 712.81 348.45 726.03 320.28 675.12 344.17 574.15 404.74 477.12 455.73 379.48 508.81 309.04 522.03 280.88 471.12 252.71 392.98 272.15 332.87 332.87 272.15 392.98 252.71 471.12 280.88 522.03 309.04 508.81 379.48 455.73 477.12 404.74 574.15 344.17 675.12 320.28 726.03 348.45Q726.03 348.45 726.03 348.45" opacity="0.31"></path><path d="M692.03 493.54C660.27 531.1 531.14 660.26 493.59 692.02 456.03 611.92 524.27 460.53 556.03 422.97 475.93 385.42 385.38 475.92 422.94 556.02 460.49 524.26 611.93 455.99 692.03 493.54Q692.03 493.54 692.03 493.54" opacity="0.91"></path></g></svg>